<?xml version="1.0" ?><!DOCTYPE svg  PUBLIC '-//W3C//DTD SVG 1.1//EN'  'http://www.w3.org/Graphics/SVG/1.1/DTD/svg11.dtd'><svg height="512px" style="enable-background:new 0 0 512 512;" version="1.1" viewBox="0 0 512 512" width="512px" xml:space="preserve" xmlns="http://www.w3.org/2000/svg" xmlns:xlink="http://www.w3.org/1999/xlink"><g id="Eco_x2C__leaves_x2C__nature"><g><path d="M154.338,395.119c20.205,31.996,150.645,94.814,223.846-8.24    c43.321-60.994,69.187-184.5,5.01-318.422C193.348,126.916,149.968,213.046,154.338,395.119L154.338,395.119z" style="fill-rule:evenodd;clip-rule:evenodd;fill:#7AC143;"/><path d="M371.915,176.371c0,0-117.225,189.872-281.723,243.42    l7.933,14.893C98.125,434.684,273.755,399.641,371.915,176.371L371.915,176.371z" style="fill-rule:evenodd;clip-rule:evenodd;fill:#3F8640;"/><path d="M222.242,268.625c-0.074,0.203-28.532,84.367-31.271,111.246    l18.495-9.221C212.061,345.328,222.168,268.824,222.242,268.625L222.242,268.625z" style="fill-rule:evenodd;clip-rule:evenodd;fill:#3F8640;"/><path d="M286.323,238.353c-0.075,0.139-27.204,60.12-31.19,79.733    l14.315-5.441C273.207,294.166,286.248,238.491,286.323,238.353L286.323,238.353z" style="fill-rule:evenodd;clip-rule:evenodd;fill:#3F8640;"/><path d="M341.535,312.881c-0.219,0.031-85.145,14.582-109.337,24.645    l16.4,11.539C271.389,339.582,341.322,312.912,341.535,312.881L341.535,312.881z" style="fill-rule:evenodd;clip-rule:evenodd;fill:#3F8640;"/><path d="M324.805,210.922c-0.031,0.104-12.104,43.434-12.749,57.101    l9.104-5.164C321.768,249.983,324.773,211.027,324.805,210.922L324.805,210.922z" style="fill-rule:evenodd;clip-rule:evenodd;fill:#3F8640;"/><path d="M376.146,253.818c-0.138,0.023-58.174,9.963-74.703,16.833    l11.204,7.887C328.227,272.063,376.015,253.835,376.146,253.818L376.146,253.818z" style="fill-rule:evenodd;clip-rule:evenodd;fill:#3F8640;"/></g></g><g id="Layer_1"/></svg>